<svg xmlns="http://www.w3.org/2000/svg" xmlns:xlink="http://www.w3.org/1999/xlink" width="375" zoomAndPan="magnify" viewBox="0 0 375 374.999991" height="374.999991" preserveAspectRatio="xMidYMid meet" version="1.0"><defs><clipPath id="id1"><path d="M 148 100.851562 L 223 100.851562 L 223 192 L 148 192 Z M 148 100.851562 " clip-rule="nonzero"/></clipPath><clipPath id="id2"><path d="M 115.660156 259 L 116 259 L 116 260 L 115.660156 260 Z M 115.660156 259 " clip-rule="nonzero"/></clipPath><clipPath id="id3"><path d="M 255 259 L 255.910156 259 L 255.910156 262 L 255 262 Z M 255 259 " clip-rule="nonzero"/></clipPath><clipPath id="id4"><path d="M 115.660156 194 L 255.910156 194 L 255.910156 285.351562 L 115.660156 285.351562 Z M 115.660156 194 " clip-rule="nonzero"/></clipPath><clipPath id="id5"><path d="M 174 209.839844 L 189 209.839844 L 189 222 L 174 222 Z M 174 209.839844 " clip-rule="nonzero"/></clipPath><clipPath id="id6"><path d="M 171.226562 222.175781 L 191.4375 222.175781 L 191.4375 278.839844 L 171.226562 278.839844 Z M 171.226562 222.175781 " clip-rule="nonzero"/></clipPath></defs><rect x="-37.5" width="450" fill="rgb(100%, 100%, 100%)" y="-37.499999" height="449.999989" fill-opacity="1"/><rect x="-37.5" width="450" fill="rgb(100%, 100%, 100%)" y="-37.499999" height="449.999989" fill-opacity="1"/><rect x="-37.5" width="450" fill="rgb(100%, 100%, 100%)" y="-37.499999" height="449.999989" fill-opacity="1"/><path fill="rgb(85.099792%, 85.099792%, 85.099792%)" d="M 181.164062 32.207031 C 95.214844 32.207031 25.539062 101.882812 25.539062 187.832031 C 25.539062 273.78125 95.214844 343.457031 181.164062 343.457031 C 267.113281 343.457031 336.789062 273.78125 336.789062 187.832031 C 336.789062 101.882812 267.113281 32.207031 181.164062 32.207031 " fill-opacity="1" fill-rule="nonzero"/><path fill="rgb(74.899292%, 74.899292%, 74.899292%)" d="M 262.128906 343.757812 L 120.050781 227.253906 L 187.105469 185.691406 L 214.6875 111.84375 L 259.117188 148.40625 L 338.316406 213.519531 L 356.601562 228.550781 L 262.128906 343.757812 " fill-opacity="1" fill-rule="nonzero"/><path fill="rgb(74.899292%, 74.899292%, 74.899292%)" d="M 181.898438 165.890625 C 168.851562 165.890625 158.273438 175.796875 158.273438 188.015625 C 158.273438 200.234375 168.851562 210.140625 181.898438 210.140625 C 194.945312 210.140625 205.523438 200.234375 205.523438 188.015625 C 205.523438 175.796875 194.945312 165.890625 181.898438 165.890625 " fill-opacity="1" fill-rule="nonzero"/><path fill="rgb(85.099792%, 85.099792%, 85.099792%)" d="M 141.890625 165.890625 C 128.84375 165.890625 118.265625 175.796875 118.265625 188.015625 C 118.265625 200.234375 128.84375 210.140625 141.890625 210.140625 C 154.9375 210.140625 165.515625 200.234375 165.515625 188.015625 C 165.515625 175.796875 154.9375 165.890625 141.890625 165.890625 " fill-opacity="1" fill-rule="nonzero"/><g clip-path="url(#id1)"><path fill="rgb(100%, 100%, 100%)" d="M 185.785156 191.082031 C 206.289062 191.082031 222.910156 170.898438 222.910156 146 C 222.910156 121.101562 217.453125 100.917969 185.785156 100.917969 C 154.121094 100.917969 148.660156 121.101562 148.660156 146 C 148.660156 170.898438 165.28125 191.082031 185.785156 191.082031 Z M 185.785156 191.082031 " fill-opacity="1" fill-rule="nonzero"/></g><g clip-path="url(#id2)"><path fill="rgb(100%, 100%, 100%)" d="M 115.667969 259.917969 C 115.660156 258.398438 115.652344 259.488281 115.667969 259.917969 Z M 115.667969 259.917969 " fill-opacity="1" fill-rule="nonzero"/></g><g clip-path="url(#id3)"><path fill="rgb(100%, 100%, 100%)" d="M 255.902344 261.101562 C 255.921875 260.6875 255.90625 258.21875 255.902344 261.101562 Z M 255.902344 261.101562 " fill-opacity="1" fill-rule="nonzero"/></g><g clip-path="url(#id4)"><path fill="rgb(100%, 100%, 100%)" d="M 255.828125 258.101562 C 255.140625 214.726562 249.472656 202.371094 206.117188 194.542969 C 206.117188 194.542969 200.015625 202.320312 185.789062 202.320312 C 171.5625 202.320312 165.460938 194.542969 165.460938 194.542969 C 122.574219 202.28125 116.566406 214.457031 115.773438 256.6875 C 115.710938 260.136719 115.679688 260.320312 115.667969 259.917969 C 115.671875 260.667969 115.675781 262.054688 115.675781 264.476562 C 115.675781 264.476562 125.996094 285.277344 185.789062 285.277344 C 245.582031 285.277344 255.902344 264.476562 255.902344 264.476562 C 255.902344 262.921875 255.902344 261.839844 255.90625 261.105469 C 255.894531 261.351562 255.871094 260.871094 255.828125 258.097656 Z M 255.828125 258.101562 " fill-opacity="1" fill-rule="nonzero"/></g><g clip-path="url(#id5)"><path fill="rgb(74.899292%, 74.899292%, 74.899292%)" d="M 178.375 221.167969 L 184.292969 221.167969 C 186.539062 221.167969 188.375 219.316406 188.375 217.050781 L 188.375 213.960938 C 188.375 211.695312 186.539062 209.839844 184.292969 209.839844 L 178.375 209.839844 C 176.128906 209.839844 174.289062 211.695312 174.289062 213.960938 L 174.289062 217.050781 C 174.289062 219.316406 176.128906 221.167969 178.375 221.167969 " fill-opacity="1" fill-rule="nonzero"/></g><g clip-path="url(#id6)"><path fill="rgb(74.899292%, 74.899292%, 74.899292%)" d="M 184.90625 222.199219 L 177.351562 222.199219 L 171.226562 269.78125 L 181.332031 278.84375 L 191.4375 269.367188 L 184.90625 222.199219 " fill-opacity="1" fill-rule="nonzero"/></g><path fill="rgb(100%, 100%, 100%)" d="M 346.179688 151.65625 L 362.679688 151.65625 L 362.679688 357.839844 L 346.179688 357.839844 L 346.179688 151.65625 " fill-opacity="1" fill-rule="nonzero"/><path fill="rgb(100%, 100%, 100%)" d="M 177.882812 353.121094 C 134.046875 353.121094 92.769531 336.058594 61.796875 305.019531 C 30.757812 274.046875 13.699219 232.773438 13.699219 188.9375 C 13.699219 145.101562 30.757812 103.828125 61.796875 72.851562 C 92.769531 41.8125 134.046875 24.753906 177.882812 24.753906 C 221.714844 24.753906 262.992188 41.8125 293.964844 72.851562 C 325.003906 103.890625 342.066406 145.101562 342.066406 188.9375 C 342.066406 232.773438 325.003906 274.046875 293.964844 305.019531 C 262.992188 336.058594 221.714844 353.121094 177.882812 353.121094 Z M 177.882812 34.597656 C 136.671875 34.597656 97.890625 50.671875 68.753906 79.808594 C 39.617188 108.945312 23.539062 147.726562 23.539062 188.9375 C 23.539062 230.148438 39.617188 268.929688 68.753906 298.066406 C 97.890625 327.199219 136.671875 343.277344 177.882812 343.277344 C 219.09375 343.277344 257.875 327.199219 287.011719 298.066406 C 316.144531 268.929688 332.222656 230.148438 332.222656 188.9375 C 332.222656 147.726562 316.144531 108.945312 287.011719 79.808594 C 257.875 50.671875 219.09375 34.597656 177.882812 34.597656 Z M 177.882812 34.597656 " fill-opacity="1" fill-rule="nonzero"/><path fill="rgb(100%, 100%, 100%)" d="M 177.242188 357.601562 C 132.210938 357.601562 89.804688 340.074219 57.988281 308.1875 C 26.101562 276.367188 8.574219 233.964844 8.574219 188.933594 C 8.574219 143.902344 26.101562 101.5 57.988281 69.679688 C 89.804688 37.792969 132.210938 20.265625 177.242188 20.265625 C 222.273438 20.265625 264.675781 37.792969 296.496094 69.679688 C 328.382812 101.566406 345.910156 143.902344 345.910156 188.933594 C 345.910156 233.964844 328.382812 276.367188 296.496094 308.1875 C 264.675781 340.074219 222.273438 357.601562 177.242188 357.601562 Z M 177.242188 30.378906 C 134.90625 30.378906 95.066406 46.894531 65.132812 76.824219 C 35.203125 106.757812 18.683594 146.597656 18.683594 188.933594 C 18.683594 231.269531 35.203125 271.109375 65.132812 301.042969 C 95.066406 330.972656 134.90625 347.488281 177.242188 347.488281 C 219.578125 347.488281 259.417969 330.972656 289.351562 301.042969 C 319.28125 271.109375 335.796875 231.269531 335.796875 188.933594 C 335.796875 146.597656 319.28125 106.757812 289.351562 76.824219 C 259.417969 46.894531 219.578125 30.378906 177.242188 30.378906 Z M 177.242188 30.378906 " fill-opacity="1" fill-rule="nonzero"/><path fill="rgb(100%, 100%, 100%)" d="M 181.722656 364.070312 C 136.445312 364.070312 93.8125 346.449219 61.820312 314.386719 C 29.757812 282.394531 12.136719 239.761719 12.136719 194.484375 C 12.136719 149.207031 29.757812 106.574219 61.820312 74.582031 C 93.8125 42.523438 136.445312 24.902344 181.722656 24.902344 C 227 24.902344 269.632812 42.523438 301.625 74.582031 C 333.683594 106.644531 351.304688 149.207031 351.304688 194.484375 C 351.304688 239.761719 333.683594 282.394531 301.625 314.386719 C 269.632812 346.449219 227 364.070312 181.722656 364.070312 Z M 181.722656 35.066406 C 139.15625 35.066406 99.097656 51.671875 69.003906 81.769531 C 38.910156 111.863281 22.304688 151.917969 22.304688 194.484375 C 22.304688 237.050781 38.910156 277.109375 69.003906 307.203125 C 99.097656 337.296875 139.15625 353.902344 181.722656 353.902344 C 224.289062 353.902344 264.34375 337.296875 294.4375 307.203125 C 324.535156 277.109375 341.140625 237.050781 341.140625 194.484375 C 341.140625 151.917969 324.535156 111.863281 294.4375 81.769531 C 264.34375 51.671875 224.289062 35.066406 181.722656 35.066406 Z M 181.722656 35.066406 " fill-opacity="1" fill-rule="nonzero"/><path fill="rgb(100%, 100%, 100%)" d="M 181.0625 368.699219 C 134.546875 368.699219 90.75 350.59375 57.882812 317.660156 C 24.949219 284.792969 6.84375 240.996094 6.84375 194.480469 C 6.84375 147.96875 24.949219 104.171875 57.882812 71.304688 C 90.75 38.371094 134.546875 20.265625 181.0625 20.265625 C 227.574219 20.265625 271.371094 38.371094 304.238281 71.304688 C 337.171875 104.238281 355.277344 147.96875 355.277344 194.480469 C 355.277344 240.996094 337.171875 284.792969 304.238281 317.660156 C 271.371094 350.59375 227.574219 368.699219 181.0625 368.699219 Z M 181.0625 30.710938 C 137.332031 30.710938 96.179688 47.769531 65.265625 78.683594 C 34.347656 109.601562 17.289062 150.753906 17.289062 194.480469 C 17.289062 238.210938 34.347656 279.363281 65.265625 310.277344 C 96.179688 341.195312 137.332031 358.253906 181.0625 358.253906 C 224.789062 358.253906 265.941406 341.195312 296.855469 310.277344 C 327.773438 279.363281 344.832031 238.210938 344.832031 194.480469 C 344.832031 150.753906 327.773438 109.601562 296.855469 78.683594 C 265.941406 47.769531 224.789062 30.710938 181.0625 30.710938 Z M 181.0625 30.710938 " fill-opacity="1" fill-rule="nonzero"/></svg>