<svg xmlns="http://www.w3.org/2000/svg" width="375" viewBox="0 0 375 375" height="375" version="1.0"><defs><clipPath id="a"><path d="M 154 95.335938 L 229 95.335938 L 229 186 L 154 186 Z M 154 95.335938"/></clipPath><clipPath id="b"><path d="M 121.210938 253 L 122 253 L 122 255 L 121.210938 255 Z M 121.210938 253"/></clipPath><clipPath id="c"><path d="M 261 254 L 261.460938 254 L 261.460938 256 L 261 256 Z M 261 254"/></clipPath><clipPath id="d"><path d="M 121.210938 189 L 261.460938 189 L 261.460938 279.835938 L 121.210938 279.835938 Z M 121.210938 189"/></clipPath><clipPath id="e"><path d="M 180 203.816406 L 195 203.816406 L 195 216 L 180 216 Z M 180 203.816406"/></clipPath><clipPath id="f"><path d="M 177.527344 216.152344 L 197.738281 216.152344 L 197.738281 272.816406 L 177.527344 272.816406 Z M 177.527344 216.152344"/></clipPath></defs><path fill="#FFF" d="M-37.5 -37.5H412.5V412.5H-37.5z"/><path fill="#FFF" d="M-37.5 -37.5H412.5V412.5H-37.5z"/><path fill="#FFF" d="M-37.5 -37.5H412.5V412.5H-37.5z"/><path fill="#ABC4D6" d="M 187.464844 26.183594 C 101.515625 26.183594 31.839844 95.855469 31.839844 181.808594 C 31.839844 267.757812 101.515625 337.429688 187.464844 337.429688 C 273.414062 337.429688 343.089844 267.757812 343.089844 181.808594 C 343.089844 95.855469 273.414062 26.183594 187.464844 26.183594"/><path fill="#9FB7C8" d="M 268.429688 337.734375 L 126.351562 221.226562 L 193.40625 179.667969 L 220.984375 105.816406 L 265.417969 142.378906 L 344.617188 207.492188 L 362.898438 222.527344 L 268.429688 337.734375"/><path fill="#FFF" d="M 188.003906 339.976562 C 144.171875 339.976562 102.894531 322.914062 71.921875 291.875 C 40.882812 260.902344 23.820312 219.625 23.820312 175.789062 C 23.820312 131.957031 40.882812 90.679688 71.921875 59.707031 C 102.894531 28.667969 144.171875 11.605469 188.003906 11.605469 C 231.839844 11.605469 273.117188 28.667969 304.089844 59.707031 C 335.128906 90.746094 352.1875 131.957031 352.1875 175.789062 C 352.1875 219.625 335.128906 260.902344 304.089844 291.875 C 273.117188 322.914062 231.839844 339.976562 188.003906 339.976562 Z M 188.003906 21.449219 C 146.792969 21.449219 108.011719 37.527344 78.875 66.664062 C 49.742188 95.796875 33.664062 134.582031 33.664062 175.789062 C 33.664062 217 49.742188 255.78125 78.875 284.917969 C 108.011719 314.054688 146.792969 330.132812 188.003906 330.132812 C 229.214844 330.132812 267.996094 314.054688 297.132812 284.917969 C 326.269531 255.78125 342.347656 217 342.347656 175.789062 C 342.347656 134.582031 326.269531 95.796875 297.132812 66.664062 C 267.996094 37.527344 229.214844 21.449219 188.003906 21.449219 Z M 188.003906 21.449219"/><path fill="#FFF" d="M 187.363281 344.457031 C 142.332031 344.457031 99.929688 326.929688 68.109375 295.042969 C 36.222656 263.222656 18.695312 220.820312 18.695312 175.785156 C 18.695312 130.753906 36.222656 88.351562 68.109375 56.53125 C 99.929688 24.644531 142.332031 7.117188 187.363281 7.117188 C 232.398438 7.117188 274.800781 24.644531 306.621094 56.53125 C 338.507812 88.417969 356.035156 130.753906 356.035156 175.785156 C 356.035156 220.820312 338.507812 263.222656 306.621094 295.042969 C 274.800781 326.929688 232.398438 344.457031 187.363281 344.457031 Z M 187.363281 17.230469 C 145.03125 17.230469 105.1875 33.746094 75.257812 63.679688 C 45.324219 93.609375 28.808594 133.453125 28.808594 175.785156 C 28.808594 218.121094 45.324219 257.964844 75.257812 287.894531 C 105.1875 317.828125 145.03125 334.34375 187.363281 334.34375 C 229.699219 334.34375 269.542969 317.828125 299.472656 287.894531 C 329.40625 257.964844 345.921875 218.121094 345.921875 175.785156 C 345.921875 133.453125 329.40625 93.609375 299.472656 63.679688 C 269.542969 33.746094 229.699219 17.230469 187.363281 17.230469 Z M 187.363281 17.230469"/><path fill="#9FB7C8" d="M 188.199219 159.867188 C 175.152344 159.867188 164.574219 169.773438 164.574219 181.992188 C 164.574219 194.210938 175.152344 204.117188 188.199219 204.117188 C 201.246094 204.117188 211.824219 194.210938 211.824219 181.992188 C 211.824219 169.773438 201.246094 159.867188 188.199219 159.867188"/><path fill="#ABC4D6" d="M 148.191406 159.867188 C 135.140625 159.867188 124.566406 169.773438 124.566406 181.992188 C 124.566406 194.210938 135.140625 204.117188 148.191406 204.117188 C 161.238281 204.117188 171.816406 194.210938 171.816406 181.992188 C 171.816406 169.773438 161.238281 159.867188 148.191406 159.867188"/><g clip-path="url(#a)"><path fill="#FFF" d="M 191.335938 185.566406 C 211.839844 185.566406 228.460938 165.382812 228.460938 140.484375 C 228.460938 115.585938 223.003906 95.402344 191.335938 95.402344 C 159.667969 95.402344 154.210938 115.585938 154.210938 140.484375 C 154.210938 165.382812 170.832031 185.566406 191.335938 185.566406 Z M 191.335938 185.566406"/></g><g clip-path="url(#b)"><path fill="#FFF" d="M 121.214844 254.402344 C 121.210938 252.886719 121.203125 253.976562 121.214844 254.402344 Z M 121.214844 254.402344"/></g><g clip-path="url(#c)"><path fill="#FFF" d="M 261.449219 255.589844 C 261.472656 255.171875 261.457031 252.703125 261.449219 255.589844 Z M 261.449219 255.589844"/></g><g clip-path="url(#d)"><path fill="#FFF" d="M 261.378906 252.585938 C 260.691406 209.210938 255.023438 196.855469 211.667969 189.027344 C 211.667969 189.027344 205.5625 196.804688 191.339844 196.804688 C 177.113281 196.804688 171.007812 189.027344 171.007812 189.027344 C 128.125 196.765625 122.113281 208.941406 121.324219 251.175781 C 121.261719 254.621094 121.230469 254.804688 121.21875 254.402344 C 121.222656 255.152344 121.222656 256.542969 121.222656 258.960938 C 121.222656 258.960938 131.546875 279.765625 191.339844 279.765625 C 251.132812 279.765625 261.453125 258.960938 261.453125 258.960938 C 261.453125 257.40625 261.453125 256.324219 261.457031 255.589844 C 261.445312 255.835938 261.421875 255.359375 261.378906 252.582031 Z M 261.378906 252.585938"/></g><g clip-path="url(#e)"><path fill="#9FB7C8" d="M 184.671875 215.144531 L 190.59375 215.144531 C 192.839844 215.144531 194.675781 213.289062 194.675781 211.023438 L 194.675781 207.933594 C 194.675781 205.667969 192.839844 203.816406 190.59375 203.816406 L 184.671875 203.816406 C 182.429688 203.816406 180.589844 205.667969 180.589844 207.933594 L 180.589844 211.023438 C 180.589844 213.289062 182.429688 215.144531 184.671875 215.144531"/></g><g clip-path="url(#f)"><path fill="#9FB7C8" d="M 191.207031 216.175781 L 183.652344 216.175781 L 177.527344 263.753906 L 187.632812 272.816406 L 197.738281 263.34375 L 191.207031 216.175781"/></g><path fill="#FFF" d="M 193.574219 350.921875 C 148.296875 350.921875 105.664062 333.300781 73.671875 301.242188 C 41.613281 269.25 23.988281 226.617188 23.988281 181.339844 C 23.988281 136.0625 41.613281 93.429688 73.671875 61.4375 C 105.664062 29.375 148.296875 11.753906 193.574219 11.753906 C 238.851562 11.753906 281.484375 29.375 313.476562 61.4375 C 345.535156 93.496094 363.160156 136.0625 363.160156 181.339844 C 363.160156 226.617188 345.535156 269.25 313.476562 301.242188 C 281.484375 333.300781 238.851562 350.921875 193.574219 350.921875 Z M 193.574219 21.921875 C 151.007812 21.921875 110.949219 38.527344 80.855469 68.621094 C 50.761719 98.714844 34.15625 138.773438 34.15625 181.339844 C 34.15625 223.902344 50.761719 263.960938 80.855469 294.054688 C 110.949219 324.152344 151.007812 340.757812 193.574219 340.757812 C 236.140625 340.757812 276.199219 324.152344 306.292969 294.054688 C 336.386719 263.960938 352.992188 223.902344 352.992188 181.339844 C 352.992188 138.773438 336.386719 98.714844 306.292969 68.621094 C 276.199219 38.527344 236.140625 21.921875 193.574219 21.921875 Z M 193.574219 21.921875"/><path fill="#FFF" d="M 192.914062 355.550781 C 146.398438 355.550781 102.601562 337.445312 69.734375 304.511719 C 36.800781 271.644531 18.695312 227.847656 18.695312 181.335938 C 18.695312 134.820312 36.800781 91.023438 69.734375 58.15625 C 102.601562 25.222656 146.398438 7.117188 192.914062 7.117188 C 239.425781 7.117188 283.222656 25.222656 316.089844 58.15625 C 349.023438 91.09375 367.128906 134.820312 367.128906 181.335938 C 367.128906 227.847656 349.023438 271.644531 316.089844 304.511719 C 283.222656 337.445312 239.425781 355.550781 192.914062 355.550781 Z M 192.914062 17.5625 C 149.183594 17.5625 108.03125 34.621094 77.117188 65.539062 C 46.199219 96.453125 29.140625 137.605469 29.140625 181.335938 C 29.140625 225.0625 46.199219 266.214844 77.117188 297.132812 C 108.03125 328.046875 149.183594 345.105469 192.914062 345.105469 C 236.640625 345.105469 277.792969 328.046875 308.710938 297.132812 C 339.625 266.214844 356.683594 225.0625 356.683594 181.335938 C 356.683594 137.605469 339.625 96.453125 308.710938 65.539062 C 277.792969 34.621094 236.640625 17.5625 192.914062 17.5625 Z M 192.914062 17.5625"/><path fill="#FFF" d="M 352.480469 145.628906 L 368.980469 145.628906 L 368.980469 351.8125 L 352.480469 351.8125 L 352.480469 145.628906"/></svg>