<svg id="Layer_1" data-name="Layer 1" xmlns="http://www.w3.org/2000/svg" viewBox="0 0 750 390"><defs><style>.cls-1{fill:#fff;}.cls-2{fill:#6d6e70;}</style></defs><path class="cls-1" d="M206.31,199.91h20.56v14.4h-50l23.2-34.73H180.26v-14.4h49Z"/><path class="cls-1" d="M246.32,134.84a9.9,9.9,0,1,1-9.89,9.89A9.85,9.85,0,0,1,246.32,134.84Zm8.79,30.34v49.13H237.53V165.18Z"/><path class="cls-1" d="M281.27,239.48H263.69v-74.3h17.58v5.38a18.4,18.4,0,0,1,15.06-7,24.45,24.45,0,0,1,17.48,7.14,27.91,27.91,0,0,1-.44,38.47A23.6,23.6,0,0,1,296.55,216a20.91,20.91,0,0,1-15.28-6.38Zm2.86-57.71a12,12,0,0,0-3.41,8.14,11.84,11.84,0,0,0,3.41,7.8A11.24,11.24,0,0,0,292,201a10.62,10.62,0,0,0,7.81-3.3,11.61,11.61,0,0,0,3.41-7.8,12,12,0,0,0-3.41-8.14,10.65,10.65,0,0,0-7.81-3.29A11.27,11.27,0,0,0,284.13,181.77Z"/><path class="cls-1" d="M424.32,199.91h20.56v14.4h-50l23.2-34.73H398.27v-14.4h49Z"/><path class="cls-1" d="M489.17,165.18h17.59v49.13H489.17v-5.39c-4.07,5.61-10.44,7-15.28,7a23.51,23.51,0,0,1-17.69-7.81,24.76,24.76,0,0,1-7-18c0-9.24,3.63-15.72,7.59-19.68a25.3,25.3,0,0,1,17.69-6.92,19.47,19.47,0,0,1,14.73,6.37ZM470.7,181.66a11.53,11.53,0,0,0-3.51,8,11.32,11.32,0,0,0,3.41,8,12.31,12.31,0,0,0,7.91,3.3,11.24,11.24,0,0,0,7.91-3.41,10.67,10.67,0,0,0,3.3-7.91,10.88,10.88,0,0,0-3.41-8,11.17,11.17,0,0,0-15.61,0Z"/><path class="cls-1" d="M533.14,239.48H515.55v-74.3h17.59v5.38a18.36,18.36,0,0,1,15.05-7,24.45,24.45,0,0,1,17.48,7.14,27.88,27.88,0,0,1-.44,38.47A23.58,23.58,0,0,1,548.41,216a20.89,20.89,0,0,1-15.27-6.38ZM536,181.77a12,12,0,0,0-3.4,8.14,11.88,11.88,0,0,0,3.4,7.8,11.25,11.25,0,0,0,7.92,3.3,10.6,10.6,0,0,0,7.8-3.3,11.61,11.61,0,0,0,3.41-7.8,12,12,0,0,0-3.41-8.14,10.63,10.63,0,0,0-7.8-3.29A11.28,11.28,0,0,0,536,181.77Z"/><path class="cls-2" d="M350,182.51l-18.11,31.81h19.9l-9.24,37.79,44.87-54.63h-19.1l19.1-32.33H367l6.59-38.34-41.62,55.7Z"/><path class="cls-2" d="M398.09,244.86h15.08v.39c0,2.22-.3,9.12-4.83,13.6-3.4,3.4-7.59,4.34-11.68,4.34s-8.33-.84-11.93-4.44a17.62,17.62,0,0,1-4.88-12.66,16.78,16.78,0,0,1,4.83-12.22c2.47-2.52,6.61-5,13-5a15.9,15.9,0,0,1,7.59,1.72,15.48,15.48,0,0,1,6.16,6l-5.56,3a8.94,8.94,0,0,0-3.85-3.89,10.76,10.76,0,0,0-4.63-1,11.12,11.12,0,0,0-7.59,2.91,12.28,12.28,0,0,0-3.3,8.68,11.16,11.16,0,0,0,3.25,8.32,10.1,10.1,0,0,0,7.29,2.81,11,11,0,0,0,6.46-2,8.73,8.73,0,0,0,3.1-5h-8.47Z"/><path class="cls-2" d="M425.49,229.58v32.87h-6.41V229.58Z"/><path class="cls-2" d="M450.42,235.1h-11v7.34h10.35V248H439.38v14.49H433V229.58h17.44Z"/><path class="cls-2" d="M468.26,235.1v27.35h-6.41V235.1h-7.39v-5.52h21.19v5.52Z"/><path class="cls-2" d="M494.87,237.07a6.43,6.43,0,0,0-5.37-2.81c-3.45,0-4.54,2.17-4.54,3.84a2.77,2.77,0,0,0,1,2.22c.79.74,1.87,1.14,3.94,1.87,2.56.89,5,1.78,6.65,3.31a8.92,8.92,0,0,1,2.81,6.9c0,6.4-4.63,10.79-11.43,10.79A13.56,13.56,0,0,1,476.63,257l4.19-4a7.72,7.72,0,0,0,6.9,4.38c2.91,0,5.08-1.77,5.08-4.53a3.85,3.85,0,0,0-1.28-3c-1.24-1.13-3.21-1.77-5.08-2.41a15.85,15.85,0,0,1-5.47-2.86,7.67,7.67,0,0,1-2.61-6.11c0-4.83,3.25-9.66,10.55-9.66a12.64,12.64,0,0,1,9.31,3.84Z"/></svg>