<svg id="Layer_1" data-name="Layer 1"
    xmlns="http://www.w3.org/2000/svg" viewBox="120 100 300 190">
    <defs>
        <style>.cls-1{fill:#6d6e70;}.cls-2{fill:#fff;}</style>
    </defs>
    <path class="cls-1" d="M359.62,188l-18.11,31.82h19.9l-9.24,37.79L397,203h-19.1L397,170.69h-20.5l6.59-38.34L341.51,188Z"/>
    <path class="cls-2" d="M179.56,205.93h21v14.69h-51l23.66-35.43H153V170.5h50Z"/>
    <path class="cls-2" d="M237.53,205.93h21v14.69h-51l23.66-35.43H211V170.5h50Z"/>
    <path class="cls-2" d="M323.54,170.5v47c0,7.52-.67,14.36-6.84,20.75-6.39,6.5-14.8,8.07-22.09,8.07-9.31,0-17-2.35-23.44-8.86A18.2,18.2,0,0,1,265.68,227h20c.67,2,2.47,5.15,8.41,5.15a10.91,10.91,0,0,0,8-2.8c3-2.8,3.59-6.39,3.59-9.31v-5c-5.61,5.94-11,6.61-15,6.61-9.19,0-15.14-3.59-18.5-7.06-4.49-4.6-6.95-11.44-6.95-18.28a28.88,28.88,0,0,1,7.4-19.62A25.18,25.18,0,0,1,290.68,169a19.56,19.56,0,0,1,14.92,6.62V170.5ZM287,187.32a11.26,11.26,0,0,0,0,16.26,11.38,11.38,0,0,0,8.08,3.25,11.87,11.87,0,0,0,8.07-3.36,12,12,0,0,0,3.37-8.08,12.86,12.86,0,0,0-3.59-8.18,11.38,11.38,0,0,0-8-3.25A10.69,10.69,0,0,0,287,187.32Z"/>
</svg>
